<svg width="11" height="12" viewBox="0 0 16 16" fill="none" xmlns="http://www.w3.org/2000/svg">
<path id="Vector" d="M5.5 0.5C2.46304 0.5 0 2.96304 0 6C0 9.03696 2.46304 11.5 5.5 11.5C8.53696 11.5 11 9.03696 11 6C11 2.96304 8.53696 0.5 5.5 0.5ZM5.94239 10.5196C5.91848 10.5196 5.89457 10.5196 5.8587 10.5315V7.93696C6.48043 7.925 7.04239 7.91304 7.55652 7.87717C7.10217 9.27609 6.25326 10.2087 5.94239 10.5196ZM5.05761 10.5196C4.73478 10.1967 3.89783 9.26413 3.44348 7.87717C3.94565 7.91304 4.51957 7.93696 5.1413 7.93696V10.5315C5.11739 10.5315 5.09348 10.5196 5.05761 10.5196ZM0.956522 6C0.956522 5.70109 0.992391 5.40217 1.04022 5.11522C1.30326 5.06739 1.80543 4.99565 2.51087 4.92391C2.45109 5.27065 2.41522 5.62935 2.41522 6.01196C2.41522 6.39457 2.45109 6.75326 2.49891 7.08804C1.80543 7.0163 1.2913 6.94457 1.02826 6.89674C0.992391 6.59783 0.956522 6.29891 0.956522 6ZM3.14457 6C3.14457 5.59348 3.19239 5.21087 3.26413 4.85217C3.81413 4.8163 4.43587 4.78043 5.1413 4.78043V7.21957C4.44783 7.20761 3.81413 7.1837 3.25217 7.13587C3.19239 6.78913 3.14457 6.40652 3.14457 6ZM5.93043 1.48043C6.25326 1.80326 7.07826 2.75978 7.54457 4.12283C7.04239 4.08696 6.48043 4.06304 5.8587 4.06304V1.46848C5.88261 1.46848 5.90652 1.48043 5.93043 1.48043ZM5.1413 1.46848V4.06304C4.51957 4.075 3.95761 4.08696 3.45543 4.12283C3.90978 2.75978 4.74674 1.80326 5.05761 1.48043C5.09348 1.48043 5.11739 1.46848 5.1413 1.46848ZM5.8587 7.21957V4.78043C6.55217 4.79239 7.18587 4.8163 7.73587 4.85217C7.80761 5.21087 7.85543 5.59348 7.85543 6C7.85543 6.40652 7.81957 6.78913 7.74783 7.14783C7.19783 7.1837 6.56413 7.20761 5.8587 7.21957ZM8.47717 4.92391C9.18261 4.99565 9.68478 5.06739 9.94783 5.11522C10.0076 5.40217 10.0435 5.70109 10.0435 6C10.0435 6.29891 10.0076 6.59783 9.95978 6.88478C9.69674 6.93261 9.19457 7.00435 8.48913 7.07609C8.54891 6.72935 8.57283 6.37065 8.57283 5.98804C8.57283 5.62935 8.53696 5.2587 8.47717 4.92391ZM9.73261 4.35C9.39783 4.30217 8.91957 4.24239 8.30978 4.18261C8.02283 3.15435 7.52065 2.32935 7.10217 1.74348C8.30978 2.19783 9.2663 3.15435 9.73261 4.35ZM3.89783 1.74348C3.46739 2.31739 2.97717 3.14239 2.69022 4.17065C2.09239 4.21848 1.61413 4.29022 1.26739 4.33804C1.7337 3.15435 2.70217 2.19783 3.89783 1.74348ZM1.26739 7.65C1.60217 7.69783 2.08043 7.75761 2.67826 7.81739C2.96522 8.84565 3.44348 9.67065 3.87391 10.2446C2.67826 9.77826 1.7337 8.8337 1.26739 7.65ZM7.12609 10.2446C7.55652 9.67065 8.03478 8.85761 8.32174 7.82935C8.91957 7.78152 9.39783 7.70978 9.73261 7.66196C9.2663 8.8337 8.32174 9.77826 7.12609 10.2446Z" fill="#5B5656"/>
</svg>
